<svg width="116" height="30" viewBox="0 0 116 30" fill="none" xmlns="http://www.w3.org/2000/svg">
<path d="M15.3047 14.8441L29.598 29.6802C29.7749 29.4974 29.8418 29.2345 29.7737 28.9894L21.8952 0.619231C21.8253 0.367747 21.627 0.172412 21.3745 0.106445L15.3047 14.8441Z" fill="url(#paint0_linear_3997_1921)"/>
<path d="M15.3044 14.8447L0.105469 22.0906C0.181351 22.3498 0.388085 22.55 0.649626 22.6174L28.8565 29.8893C29.1231 29.958 29.4061 29.8784 29.5977 29.6808L15.3044 14.8447Z" fill="url(#paint1_linear_3997_1921)"/>
<path d="M15.305 14.8442L21.3747 0.106557C21.1175 0.040681 20.8447 0.117914 20.6602 0.308856L0.288668 21.3898C0.109473 21.5752 0.0402209 21.8408 0.106058 22.0901L15.305 14.8442Z" fill="#3FA9F5"/>
<path d="M50.2005 13.1971C49.4255 13.1971 48.7484 13.025 48.1773 12.6807C47.6144 12.3365 47.1657 11.8693 46.8556 11.2955C46.5456 10.7135 46.3906 10.066 46.3906 9.36107C46.3906 8.65615 46.5538 7.96762 46.8801 7.39386C47.2065 6.82009 47.647 6.36927 48.1936 6.0332C48.7402 5.70533 49.3684 5.5332 50.0619 5.5332C50.6411 5.5332 51.1551 5.62337 51.6038 5.81189C52.0443 5.99222 52.4278 6.25451 52.7296 6.58238C53.0315 6.91025 53.2681 7.2955 53.4312 7.72992C53.5944 8.16435 53.676 8.63975 53.676 9.14795C53.676 9.29549 53.676 9.43484 53.6597 9.57418C53.6515 9.68074 53.6352 9.7791 53.6107 9.86106H48.3405V9.95942C48.3731 10.1561 48.422 10.3447 48.4955 10.5168C48.6342 10.8529 48.8544 11.1152 49.14 11.3037C49.4337 11.4922 49.7845 11.5824 50.2005 11.5824H52.852V13.1971H50.2005ZM50.07 7.00861C49.7029 7.00861 49.3766 7.09877 49.1073 7.2873C48.8381 7.46763 48.6342 7.74631 48.5036 8.09877C48.471 8.19713 48.4384 8.30369 48.4139 8.41025L48.3894 8.5168H51.6935V8.42664C51.669 8.30369 51.6446 8.18074 51.6119 8.07418C51.5059 7.75451 51.3182 7.49222 51.0572 7.30369C50.7961 7.11517 50.4616 7.01681 50.0863 7.01681L50.07 7.00861Z" fill="#0F102B" stroke="#0F102B" stroke-width="0.0506756" stroke-miterlimit="10"/>
<path d="M57.3053 13.0333L54.4336 5.69727H56.465L58.1375 10.3612L59.8099 5.69727H61.8413L58.9696 13.0333H57.3053Z" fill="#0F102B" stroke="#0F102B" stroke-width="0.0506756" stroke-miterlimit="10"/>
<path d="M64.9158 5.69727H63.0312V13.0251H64.9158V5.69727Z" fill="#0F102B" stroke="#0F102B" stroke-width="0.0506756" stroke-miterlimit="10"/>
<path d="M69.5117 13.1975C68.7122 13.1975 68.0106 13.009 67.415 12.6237C66.8521 12.2631 66.4524 11.7713 66.2402 11.1647L67.6027 10.5172C67.7985 10.8942 68.0514 11.1975 68.3777 11.4188C68.7204 11.6565 69.1038 11.7795 69.5199 11.7795C69.8299 11.7795 70.0746 11.7139 70.2378 11.5828C70.4173 11.4434 70.507 11.2549 70.507 11.0172C70.507 10.886 70.4744 10.7795 70.4091 10.6893C70.352 10.5992 70.2541 10.5254 70.1399 10.4516C70.0257 10.386 69.8788 10.3287 69.7075 10.2795L68.4348 9.91882C67.8393 9.74669 67.3824 9.4762 67.0642 9.09915C66.7542 8.7303 66.591 8.27948 66.591 7.77129C66.591 7.32867 66.7053 6.92703 66.9337 6.59916C67.1621 6.26309 67.4803 6.0008 67.8964 5.81228C68.3124 5.62375 68.7938 5.52539 69.3404 5.52539C70.0502 5.52539 70.6783 5.69752 71.2168 6.02539C71.7308 6.34506 72.0979 6.79588 72.3263 7.36145L70.9639 8.0008C70.8415 7.71391 70.6457 7.47621 70.3683 7.29588C70.0665 7.09916 69.7238 7.0008 69.3404 7.0008C69.0548 7.0008 68.8346 7.05817 68.6632 7.18113C68.4919 7.30408 68.4022 7.4844 68.4022 7.70571C68.4022 7.82866 68.4348 7.93522 68.5001 8.02539C68.5653 8.12375 68.6632 8.20571 68.8019 8.27129C68.9325 8.33686 69.0875 8.40243 69.2751 8.45981L70.4662 8.82047C71.0699 9.00079 71.535 9.27129 71.8531 9.62374C72.1632 9.9762 72.3263 10.4188 72.3263 10.9352C72.3263 11.386 72.2121 11.7795 71.9755 12.1073C71.7471 12.4434 71.4208 12.7057 71.0047 12.8942C70.5886 13.0828 70.0909 13.1811 69.5199 13.1811L69.5117 13.1975Z" fill="#0F102B" stroke="#0F102B" stroke-width="0.0506756" stroke-miterlimit="10"/>
<path d="M75.6853 5.69727H73.8008V13.0251H75.6853V5.69727Z" fill="#0F102B" stroke="#0F102B" stroke-width="0.0506756" stroke-miterlimit="10"/>
<path d="M81.053 13.1971C80.3351 13.1971 79.6661 13.0332 79.0787 12.6971C78.4913 12.3693 78.01 11.9102 77.6592 11.3365C77.3084 10.7627 77.1289 10.0988 77.1289 9.36926C77.1289 8.63976 77.3084 7.96762 77.6592 7.39386C78.01 6.82009 78.4832 6.36927 79.0787 6.0332C79.6661 5.70533 80.3351 5.5332 81.053 5.5332C81.771 5.5332 82.4318 5.69714 83.0192 6.0332C83.6066 6.36107 84.0798 6.82009 84.4306 7.39386C84.7814 7.95943 84.9609 8.62336 84.9609 9.36926C84.9609 10.1152 84.7814 10.7627 84.4306 11.3365C84.0798 11.9102 83.6066 12.3693 83.0192 12.6971C82.4318 13.025 81.771 13.1971 81.053 13.1971ZM81.053 7.22172C80.6614 7.22172 80.3188 7.32008 80.0251 7.50041C79.7314 7.68894 79.4948 7.94303 79.3316 8.26271C79.1685 8.58238 79.0869 8.95123 79.0869 9.36926C79.0869 9.78729 79.1685 10.1561 79.3316 10.484C79.4948 10.8119 79.7314 11.066 80.0251 11.2463C80.3188 11.4266 80.6696 11.5168 81.053 11.5168C81.4365 11.5168 81.7873 11.4266 82.0728 11.2463C82.3665 11.066 82.595 10.8037 82.7581 10.484C82.9213 10.1643 83.0029 9.78729 83.0029 9.36926C83.0029 8.95123 82.9213 8.58238 82.7581 8.26271C82.595 7.94303 82.3584 7.68894 82.0728 7.50041C81.7791 7.31189 81.4365 7.22172 81.053 7.22172Z" fill="#0F102B" stroke="#0F102B" stroke-width="0.0506756" stroke-miterlimit="10"/>
<path d="M91.2108 13.0332V8.73812C91.2108 8.43484 91.1537 8.16435 91.0313 7.94303C90.9089 7.72172 90.7376 7.5414 90.5173 7.41845C90.2971 7.2955 90.0442 7.22992 89.7586 7.22992C89.4731 7.22992 89.2283 7.2955 89.0081 7.41845C88.7878 7.5414 88.6083 7.72172 88.4859 7.94303C88.3635 8.16435 88.3064 8.43484 88.3064 8.73812V13.0332H86.4219V5.69714H88.1678V6.525L88.3309 6.56599C88.4941 6.25451 88.7307 6.00861 89.0325 5.84468C89.4078 5.63976 89.8484 5.5332 90.3542 5.5332C90.9008 5.5332 91.3903 5.64796 91.7982 5.87746C92.2061 6.10697 92.5324 6.42664 92.7609 6.84468C92.9893 7.25451 93.1035 7.74631 93.1035 8.29549V13.0332H91.219H91.2108Z" fill="#0F102B" stroke="#0F102B" stroke-width="0.0506756" stroke-miterlimit="10"/>
<path d="M103.611 13.0333V5.6972H105.357V6.72999L105.52 6.76277C105.675 6.37753 105.896 6.09884 106.165 5.9431C106.532 5.72999 106.964 5.61523 107.47 5.61523H107.821V7.22999H107.266C106.744 7.22999 106.312 7.39392 105.985 7.71359C105.659 8.03326 105.496 8.49228 105.496 9.07424V13.0251H103.611V13.0333Z" fill="#0F102B" stroke="#0F102B" stroke-width="0.0506756" stroke-miterlimit="10"/>
<path d="M112.317 16.0493C111.452 16.0493 110.702 15.8444 110.082 15.4346C109.486 15.0411 109.07 14.5165 108.842 13.8854L110.58 13.2706C110.694 13.5985 110.89 13.8608 111.167 14.0575C111.469 14.2706 111.852 14.3772 112.317 14.3772C112.635 14.3772 112.921 14.3198 113.158 14.2133C113.402 14.0985 113.598 13.9264 113.737 13.6887C113.875 13.4592 113.949 13.1723 113.949 12.8362V11.6067L113.794 11.828C113.639 12.0493 113.443 12.2215 113.215 12.3526C112.839 12.5575 112.399 12.6641 111.893 12.6641C111.306 12.6641 110.808 12.5329 110.4 12.287C109.992 12.0329 109.682 11.6805 109.47 11.2297C109.258 10.7788 109.152 10.2379 109.152 9.6313V5.70508H111.036V9.46737C111.036 9.76245 111.093 10.0329 111.216 10.2543C111.338 10.4838 111.51 10.6641 111.738 10.787C111.958 10.91 112.211 10.9756 112.489 10.9756C112.766 10.9756 113.035 10.91 113.247 10.787C113.468 10.6641 113.639 10.4838 113.761 10.2543C113.884 10.0247 113.941 9.76245 113.941 9.46737V5.70508H115.825V12.8362C115.825 13.4756 115.67 14.0411 115.377 14.5247C115.075 15.0083 114.659 15.3854 114.128 15.6559C113.598 15.9264 112.994 16.0575 112.325 16.0575L112.317 16.0493Z" fill="#0F102B" stroke="#0F102B" stroke-width="0.0506756" stroke-miterlimit="10"/>
<path d="M41.4953 27.5501C40.7448 27.5501 40.035 27.4189 39.3905 27.1566C38.746 26.8943 38.1749 26.5255 37.7017 26.0583C37.2204 25.591 36.8451 25.0337 36.5759 24.4025C36.3067 23.7796 36.168 23.0829 36.168 22.3451C36.168 21.6074 36.2985 20.9189 36.5677 20.2878C36.8288 19.6566 37.2041 19.1074 37.6854 18.6402C38.1586 18.173 38.7297 17.8042 39.3742 17.5419C40.0187 17.2796 40.7285 17.1484 41.4872 17.1484C42.2459 17.1484 42.9638 17.2796 43.6002 17.5419C44.2447 17.8042 44.8158 18.173 45.2889 18.6402C45.7621 19.1074 46.1374 19.6648 46.4066 20.2878C46.6677 20.9189 46.8064 21.6074 46.8064 22.3451C46.8064 23.0829 46.6677 23.7714 46.4066 24.4025C46.1374 25.0255 45.7621 25.5828 45.2808 26.0583C44.8076 26.5255 44.2365 26.9025 43.592 27.1566C42.9475 27.4189 42.2377 27.5501 41.4872 27.5501H41.4953ZM41.4953 18.9107C41.0222 18.9107 40.5816 18.9927 40.1737 19.1566C39.7658 19.3206 39.4068 19.5583 39.0968 19.8697C38.7868 20.1812 38.5502 20.5501 38.3789 20.9599C38.2075 21.3779 38.126 21.8451 38.126 22.3451C38.126 22.8451 38.2075 23.3124 38.3789 23.7386C38.5502 24.1566 38.7868 24.5255 39.0968 24.8369C39.4068 25.1402 39.7658 25.3779 40.1737 25.5501C40.5816 25.7222 41.0222 25.8042 41.4953 25.8042C41.9685 25.8042 42.4172 25.7222 42.817 25.5501C43.2249 25.3861 43.5839 25.1402 43.8939 24.8369C44.2039 24.5337 44.4405 24.1648 44.6118 23.7386C44.7831 23.3206 44.8647 22.8451 44.8647 22.3451C44.8647 21.8451 44.7831 21.3779 44.6118 20.9599C44.4486 20.5419 44.2039 20.173 43.8939 19.8697C43.5839 19.5583 43.2249 19.3206 42.817 19.1566C42.4091 18.9927 41.9685 18.9107 41.4953 18.9107Z" fill="#0F102B" stroke="#0F102B" stroke-width="0.0506756" stroke-miterlimit="10"/>
<path d="M53.203 27.3853V23.0903C53.203 22.787 53.1459 22.5165 53.0235 22.2952C52.9011 22.0739 52.7298 21.8936 52.5095 21.7706C52.2893 21.6476 52.0363 21.5821 51.7508 21.5821C51.4653 21.5821 51.2205 21.6476 51.0002 21.7706C50.78 21.8936 50.6005 22.0739 50.4781 22.2952C50.3557 22.5165 50.2986 22.787 50.2986 23.0903V27.3853H48.4141V20.0575H50.1599V20.8854L50.3231 20.9263C50.4863 20.6149 50.7229 20.369 51.0247 20.205C51.4 20.0001 51.8405 19.8936 52.3464 19.8936C52.893 19.8936 53.3743 20.0083 53.7904 20.2378C54.1983 20.4673 54.5246 20.787 54.7531 21.205C54.9815 21.6149 55.0957 22.1067 55.0957 22.6558V27.3935H53.2111L53.203 27.3853Z" fill="#0F102B" stroke="#0F102B" stroke-width="0.0506756" stroke-miterlimit="10"/>
<path d="M59.2469 27.4677C58.3577 27.4677 57.705 27.271 57.3052 26.8939C56.8973 26.5169 56.6934 25.9021 56.6934 25.0825V17.1562H58.5779V24.9267C58.5779 25.5251 58.9043 25.8366 59.5324 25.853V27.4677H59.2469Z" fill="#0F102B" stroke="#0F102B" stroke-width="0.0506756" stroke-miterlimit="10"/>
<path d="M62.8045 20.0576H60.9199V27.3855H62.8045V20.0576Z" fill="#0F102B" stroke="#0F102B" stroke-width="0.0506756" stroke-miterlimit="10"/>
<path d="M69.3397 27.3853V23.0903C69.3397 22.787 69.2826 22.5165 69.1602 22.2952C69.0378 22.0739 68.8665 21.8936 68.6462 21.7706C68.426 21.6476 68.1731 21.5821 67.8875 21.5821C67.602 21.5821 67.3572 21.6476 67.137 21.7706C66.9167 21.8936 66.7372 22.0739 66.6148 22.2952C66.4925 22.5165 66.4353 22.787 66.4353 23.0903V27.3853H64.5508V20.0575H66.2967V20.8854L66.4598 20.9263C66.623 20.6149 66.8596 20.369 67.1614 20.205C67.5367 20.0001 67.9773 19.8936 68.4831 19.8936C69.0297 19.8936 69.5192 20.0083 69.9271 20.2378C70.335 20.4673 70.6613 20.7952 70.8898 21.205C71.1182 21.6149 71.2324 22.1067 71.2324 22.6558V27.3935H69.3479L69.3397 27.3853Z" fill="#0F102B" stroke="#0F102B" stroke-width="0.0506756" stroke-miterlimit="10"/>
<path d="M76.3392 27.5497C75.5642 27.5497 74.887 27.3775 74.316 27.0333C73.7449 26.689 73.3043 26.2218 72.9943 25.6398C72.6843 25.0579 72.5293 24.4103 72.5293 23.7054C72.5293 23.0005 72.6925 22.312 73.0188 21.7382C73.3451 21.1644 73.7857 20.7136 74.3323 20.3857C74.887 20.0579 75.5152 19.8857 76.2005 19.8857C76.7798 19.8857 77.2937 19.9759 77.7424 20.1644C78.183 20.3448 78.5664 20.6071 78.8683 20.9349C79.1701 21.2628 79.4067 21.648 79.5699 22.0825C79.7331 22.5169 79.8147 22.9923 79.8147 23.5005C79.8147 23.6398 79.8147 23.7874 79.7983 23.9267C79.7902 24.0333 79.7739 24.1316 79.7494 24.2136H74.4791V24.312C74.5118 24.5087 74.5607 24.6972 74.6341 24.8693C74.7728 25.2054 74.9931 25.4677 75.2868 25.6562C75.5805 25.8447 75.9313 25.9349 76.3474 25.9349H78.9988V27.5497H76.3474H76.3392ZM76.2087 21.3693C75.8334 21.3693 75.5152 21.4595 75.246 21.648C74.9768 21.8284 74.7728 22.0989 74.6423 22.4595C74.6015 22.5579 74.577 22.6644 74.5526 22.771L74.5281 22.8775H77.8322V22.7874C77.8077 22.6644 77.7832 22.5415 77.7506 22.4349C77.6445 22.1152 77.4569 21.853 77.1958 21.6644C76.9348 21.4759 76.6084 21.3775 76.225 21.3775L76.2087 21.3693Z" fill="#0F102B" stroke="#0F102B" stroke-width="0.0506756" stroke-miterlimit="10"/>
<path d="M97.37 13.091C96.7337 13.091 96.1789 12.9271 95.7221 12.5992C95.257 12.2714 94.8981 11.8206 94.6452 11.2714C94.3923 10.714 94.2617 10.0747 94.2617 9.36974C94.2617 8.66483 94.3923 8.03368 94.6452 7.4763C94.8981 6.91893 95.257 6.46811 95.7221 6.14024C96.1871 5.81237 96.7337 5.64844 97.37 5.64844C97.9166 5.64844 98.3898 5.79598 98.7896 6.09106C99.1893 6.38614 99.483 6.80417 99.6625 7.33696L99.8257 7.31237V5.7468H101.898V13.0091L99.8257 13.0255V11.4435L99.6625 11.4189C99.4912 11.9517 99.1975 12.3697 98.7977 12.6648C98.398 12.9599 97.9166 13.1074 97.37 13.1074V13.091ZM98.0961 7.43532C97.7943 7.43532 97.5006 7.51729 97.2395 7.66483C96.9784 7.82056 96.7582 8.04188 96.6113 8.33696C96.4645 8.62384 96.3829 8.9763 96.3829 9.36974C96.3829 9.76318 96.4563 10.1238 96.6113 10.4025C96.7663 10.6894 96.9784 10.9107 97.2395 11.0583C97.5006 11.214 97.7943 11.2878 98.0961 11.2878C98.398 11.2878 98.6917 11.2058 98.9527 11.0583C99.2138 10.9025 99.4341 10.6812 99.5891 10.4025C99.7441 10.1156 99.8257 9.77138 99.8257 9.36974C99.8257 8.9681 99.7441 8.63204 99.5891 8.33696C99.4341 8.04188 99.222 7.82056 98.9527 7.66483C98.6917 7.50909 98.398 7.43532 98.0961 7.43532Z" fill="#0F102B"/>
<path d="M43.3459 13.0655C43.3214 11.3196 42.3995 9.90159 40.9963 9.42619C40.5965 9.28684 40.2049 9.21307 39.4136 9.21307H39.332V13.0655H37.2598V2.95898H41.0942C41.7795 2.95898 42.6932 3.04095 43.199 3.27866C43.7375 3.52456 44.0964 3.82784 44.3412 4.21308C44.6186 4.6557 44.7736 5.22128 44.7736 5.74586C44.7736 6.27045 44.5941 7.08193 44.2514 7.51635C43.868 7.99996 43.2398 8.27045 42.9869 8.36061L42.734 8.45078L42.9951 8.52455C44.0638 8.81143 45.6383 10.8278 45.6791 13.0573H43.3459V13.0655ZM39.332 7.59012H40.9065C41.3879 7.59012 41.8529 7.45078 42.1466 7.22127C42.5056 6.94258 42.6606 6.56553 42.6606 5.99177C42.6606 5.55734 42.4566 5.1557 42.1058 4.9016C41.7387 4.63931 41.1921 4.61472 40.8168 4.61472H39.3238V7.59012H39.332Z" fill="#0F102B"/>
<path d="M61.8986 19.2545C61.4989 19.2545 61.1644 19.1398 60.9033 18.9021C60.6423 18.6644 60.5117 18.3857 60.5117 18.0496C60.5117 17.689 60.6423 17.4021 60.9033 17.1644C61.1644 16.9267 61.4989 16.8037 61.8986 16.8037C62.2984 16.8037 62.6247 16.9185 62.8858 17.1644C63.1469 17.4021 63.2692 17.6972 63.2692 18.0496C63.2692 18.4021 63.1469 18.6726 62.8858 18.9021C62.6329 19.1316 62.2984 19.2545 61.8986 19.2545Z" fill="#0F102B"/>
<path d="M74.756 4.90199C74.3563 4.90199 74.0218 4.78723 73.7607 4.54953C73.4997 4.31182 73.3691 4.03314 73.3691 3.69707C73.3691 3.33642 73.4997 3.04953 73.7607 2.81183C74.0218 2.57412 74.3563 2.45117 74.756 2.45117C75.1558 2.45117 75.4903 2.57412 75.7432 2.81183C76.0043 3.04953 76.1266 3.33642 76.1266 3.69707C76.1266 4.05773 76.0043 4.32002 75.7432 4.54953C75.4903 4.77904 75.1558 4.90199 74.756 4.90199Z" fill="#0F102B"/>
<path d="M63.9553 4.90199C63.5555 4.90199 63.221 4.78723 62.96 4.54953C62.6989 4.31182 62.5684 4.03314 62.5684 3.69707C62.5684 3.33642 62.6989 3.04953 62.96 2.81183C63.221 2.57412 63.5555 2.45117 63.9553 2.45117C64.355 2.45117 64.6895 2.57412 64.9424 2.81183C65.1953 3.04953 65.3259 3.34461 65.3259 3.69707C65.3259 4.04953 65.2035 4.32002 64.9424 4.54953C64.6895 4.77904 64.355 4.90199 63.9553 4.90199Z" fill="#0F102B"/>
<defs>
<linearGradient id="paint0_linear_3997_1921" x1="29.8858" y1="14.8996" x2="15.3037" y2="14.8985" gradientUnits="userSpaceOnUse">
<stop stop-color="#FFB37D"/>
<stop offset="1" stop-color="#FE7654"/>
</linearGradient>
<linearGradient id="paint1_linear_3997_1921" x1="10.5986" y1="31.0879" x2="20.4846" y2="19.1301" gradientUnits="userSpaceOnUse">
<stop stop-color="#6928FF"/>
<stop offset="0.38" stop-color="#6B28FE"/>
<stop offset="0.54" stop-color="#722BFE"/>
<stop offset="0.67" stop-color="#7E30FE"/>
<stop offset="0.77" stop-color="#9037FE"/>
<stop offset="0.86" stop-color="#A840FD"/>
<stop offset="0.94" stop-color="#C44BFD"/>
<stop offset="1" stop-color="#DE56FD"/>
</linearGradient>
</defs>
</svg>
