<svg width="651" height="536" viewBox="0 0 651 536" fill="none" xmlns="http://www.w3.org/2000/svg">
<path d="M106.342 116.388L37.1191 100.458C29.1056 98.6133 21.1144 103.614 19.2702 111.628L3.33922 180.851C1.49501 188.864 6.49616 196.856 14.5096 198.7L83.7326 214.631C91.7461 216.475 99.7373 211.474 101.582 203.46L117.512 134.237C119.357 126.224 114.356 118.233 106.342 116.388Z" fill="#AF43AB"/>
<path d="M90.7605 133.084L43.834 122.285C40.3033 121.472 36.7782 123.678 35.9656 127.209L25.166 174.136C24.3534 177.666 26.5595 181.191 30.0902 182.004L77.0168 192.804C80.5475 193.616 84.0727 191.41 84.8852 187.879L95.6849 140.953C96.4974 137.422 94.2912 133.897 90.7605 133.084ZM50.0219 171.797C50.3412 172.29 50.4457 172.887 50.3149 173.456C50.1841 174.024 49.8385 174.53 49.3355 174.834C48.8326 175.139 48.2356 175.243 47.6673 175.113C47.099 174.982 46.6078 174.627 46.3034 174.124L43.9883 170.408L40.2847 172.726C39.2639 173.344 37.9218 173.035 37.2916 172.012C36.6586 171 36.9554 169.655 37.9575 169.008L41.6732 166.692L39.3554 162.989C38.7373 161.968 39.0461 160.626 40.0696 159.996C41.0811 159.363 42.4261 159.66 43.0739 160.662L45.389 164.377L49.0926 162.06C50.1134 161.441 51.4555 161.75 52.0857 162.774C52.7187 163.785 52.4219 165.13 51.4198 165.778L47.704 168.093L50.0219 171.797ZM56.4787 145.4L52.2105 144.418L51.2282 148.686C50.9583 149.859 49.7832 150.594 48.6104 150.324C47.4375 150.055 46.7021 148.879 46.972 147.707L47.9543 143.438L43.6861 142.456C42.5133 142.186 41.7779 141.011 42.0478 139.838C42.3177 138.665 43.4928 137.93 44.6656 138.2L48.9338 139.182L49.9161 134.914C50.1861 133.741 51.3611 133.006 52.534 133.276C53.7068 133.546 54.4422 134.721 54.1723 135.893L53.19 140.162L57.4582 141.144C58.6311 141.414 59.3665 142.589 59.0966 143.762C58.8267 144.935 57.6516 145.67 56.4787 145.4ZM75.2029 181.157L62.4102 178.213C61.2374 177.943 60.502 176.768 60.7719 175.595C61.0418 174.422 62.2169 173.687 63.3897 173.957L76.1824 176.901C77.3553 177.171 78.0906 178.346 77.8207 179.518C77.5508 180.691 76.3758 181.427 75.2029 181.157ZM77.1675 172.62L64.3748 169.676C63.202 169.406 62.4666 168.231 62.7365 167.058C63.0064 165.886 64.1815 165.15 65.3543 165.42L78.147 168.364C79.3199 168.634 80.0552 169.809 79.7853 170.982C79.5154 172.155 78.3404 172.89 77.1675 172.62ZM82.0762 151.291L69.2835 148.347C68.1106 148.077 67.3753 146.902 67.6452 145.729C67.9151 144.556 69.0902 143.821 70.263 144.091L83.0557 147.035C84.2286 147.305 84.9639 148.48 84.694 149.653C84.424 150.826 83.249 151.561 82.0762 151.291Z" fill="#F2BAEE"/>
<path d="M633.904 302.838L554.059 276.539C544.816 273.495 534.855 278.52 531.811 287.763L505.512 367.608C502.468 376.851 507.493 386.812 516.736 389.856L596.58 416.155C605.823 419.199 615.784 414.174 618.829 404.931L645.127 325.086C648.172 315.843 643.147 305.882 633.904 302.838Z" fill="#1B4E0D"/>
<path d="M583.08 358.573L584.998 362.374C586.506 361.974 588.135 362 589.725 362.524C591.901 363.241 593.592 364.772 594.541 366.677C595.496 368.568 595.736 370.842 595.019 373.018C594.303 375.194 592.772 376.885 590.867 377.834C588.975 378.788 586.701 379.028 584.525 378.312C582.35 377.595 580.659 376.064 579.709 374.159C578.755 372.268 578.515 369.994 579.232 367.818C579.751 366.242 580.698 364.915 581.897 363.95L579.98 360.149C577.012 361.228 573.678 361.351 570.456 360.29C567.235 359.229 564.627 357.148 562.881 354.517L559.896 356.023C560.965 358.926 561.102 362.218 560.055 365.398C558.824 369.135 556.206 372.014 552.947 373.646C549.703 375.283 545.813 375.687 542.089 374.461C538.365 373.234 535.473 370.612 533.84 367.353C532.204 364.109 531.8 360.219 533.026 356.495C534.253 352.771 536.875 349.878 540.134 348.246C543.378 346.609 547.268 346.205 550.992 347.432C554.088 348.452 556.602 350.439 558.311 352.95L561.314 351.435C560.236 348.467 560.113 345.133 561.174 341.912C562.235 338.69 564.315 336.082 566.946 334.336L563.392 327.291C561.379 327.911 559.16 327.938 557.012 327.23C554.264 326.325 552.135 324.387 550.929 321.996C549.722 319.604 549.429 316.74 550.334 313.992C551.239 311.245 553.177 309.116 555.568 307.909C557.96 306.703 560.824 306.409 563.572 307.314C566.319 308.219 568.448 310.157 569.655 312.549C570.861 314.941 571.155 317.805 570.25 320.552C569.542 322.7 568.202 324.469 566.507 325.72L570.061 332.765C573.029 331.686 576.363 331.563 579.584 332.624C582.806 333.685 585.414 335.766 587.16 338.397L594.409 334.74C593.56 332.249 593.485 329.473 594.371 326.781C595.455 323.49 597.773 320.96 600.628 319.52C603.483 318.079 606.909 317.723 610.186 318.803C613.464 319.882 616.007 322.204 617.448 325.06C618.888 327.915 619.244 331.34 618.164 334.618C617.085 337.895 614.763 340.439 611.908 341.879C609.052 343.32 605.627 343.675 602.349 342.596C599.658 341.709 597.469 339.999 595.971 337.836L588.722 341.493C589.8 344.461 589.924 347.795 588.862 351.016C587.801 354.238 585.721 356.846 583.09 358.592L583.08 358.573Z" fill="#CEF4B8"/>
<path d="M220.633 426.312L147.632 401.418C139.182 398.536 129.995 403.05 127.113 411.501L102.218 484.501C99.3362 492.952 103.851 502.139 112.301 505.021L185.302 529.916C193.753 532.798 202.94 528.283 205.822 519.833L230.716 446.832C233.598 438.381 229.084 429.194 220.633 426.312Z" fill="#7A4B20"/>
<path d="M158.23 478.949C172.039 483.659 187.044 476.307 191.766 462.501C196.476 448.692 189.124 433.687 175.318 428.965C169.045 426.826 162.213 427.115 156.141 429.77C155.332 429.722 154.545 430.108 154.089 430.778C141.294 437.745 136.565 453.783 143.532 466.578C146.7 472.398 151.944 476.806 158.217 478.945L158.23 478.949ZM153.317 470.442C158.058 470.521 163.929 469.207 170.092 466.497L173.806 474.055C166.815 476.482 159.066 475.121 153.312 470.454L153.317 470.442ZM187.04 454.655C187.401 454.223 187.728 453.808 188.042 453.388C188.225 460.781 184.568 467.747 178.376 471.799L174.662 464.241C179.716 461.481 184.051 458.12 187.028 454.651L187.04 454.655ZM185.892 444.542C186.589 445.961 185.536 448.548 183.165 451.327C180.189 454.795 175.564 458.172 170.143 460.835C158.464 466.575 149.013 466.156 147.635 463.351C146.35 460.735 151.012 453.827 161.113 448.248L165.054 456.267C165.676 457.533 167.206 458.054 168.471 457.433C169.737 456.811 170.258 455.281 169.637 454.015L165.713 446.03C173.81 442.528 180.588 441.979 183.891 443.105C184.728 443.319 185.449 443.836 185.896 444.571L185.892 444.542ZM173.632 433.785C176.029 434.602 178.266 435.849 180.223 437.456C175.469 437.372 169.615 438.678 163.435 441.396L159.721 433.838C164.219 432.254 169.118 432.245 173.632 433.785ZM155.139 436.09L158.853 443.648C152.926 446.879 148.315 450.715 145.477 454.53C145.281 447.133 148.942 440.154 155.134 436.102L155.139 436.09ZM183.594 488.553C175.745 492.41 166.8 493.387 158.289 491.339C158.204 493.175 158.967 494.944 160.348 496.155L162.464 496.877C164.403 497.538 165.436 499.641 164.775 501.579C164.114 503.517 162.015 504.538 160.073 503.89L142.502 497.898C140.564 497.237 139.53 495.133 140.191 493.195C140.852 491.257 142.951 490.236 144.893 490.884L147.01 491.606C148.851 491.508 150.541 490.561 151.582 489.052C143.593 485.473 137.109 479.234 133.252 471.385C132.572 470 133.137 468.342 134.522 467.662C135.907 466.981 137.577 467.551 138.245 468.932C146.065 484.779 165.255 491.323 181.119 483.538C196.979 475.766 203.506 456.626 195.704 440.771C195.023 439.386 195.588 437.728 196.974 437.047C198.359 436.367 200.029 436.936 200.697 438.317C209.826 456.917 202.156 479.368 183.573 488.531L183.594 488.553Z" fill="#FADDA3"/>
<path d="M358.81 126.456L215.576 178.473C198.995 184.494 190.435 202.818 196.456 219.399L248.473 362.633C254.494 379.214 272.817 387.774 289.398 381.753L432.632 329.736C449.214 323.715 457.774 305.391 451.752 288.81L399.736 145.576C393.714 128.995 375.391 120.435 358.81 126.456Z" fill="#ED5638"/>
<path d="M272.58 212.936C250.488 220.959 244.675 243.629 249.871 258.875C256.131 276.113 270.451 287.706 287.531 296.059C304.61 304.412 324.6 309.471 342.541 314.114C343.1 314.25 343.851 313.978 344.192 313.514C355.187 298.562 367.083 281.725 374.797 264.368C382.536 247.001 386.08 228.921 379.82 211.683C374.023 196.656 355.017 182.998 332.925 191.021C319.765 195.8 310.578 206.839 308.313 217.602C299.82 210.746 285.714 208.166 272.529 212.954L272.58 212.936Z" fill="#FFBEB5"/>
<path d="M465.595 1.94255L363.417 11.2102C351.589 12.2831 342.869 22.7416 343.942 34.57L353.21 136.748C354.283 148.576 364.741 157.296 376.57 156.223L478.748 146.955C490.576 145.882 499.295 135.424 498.222 123.595L488.955 21.4172C487.882 9.5888 477.423 0.8697 465.595 1.94255Z" fill="#393190"/>
<path d="M430.62 38.0563L434.373 33.5553C435.979 31.6282 438.857 31.3671 440.784 32.9737L462.876 51.392C464.804 52.9986 465.064 55.876 463.458 57.8031L459.705 62.3042C458.099 64.2313 455.221 64.4923 453.294 62.8857L431.202 44.4675C429.275 42.8609 429.014 39.9834 430.62 38.0563Z" fill="#C7C2FF"/>
<path d="M424.276 48.733C423.323 47.9378 421.93 47.8661 420.897 48.5717L393.169 67.6416C392.543 68.0763 392.116 68.7268 391.967 69.4601L382.883 114.533C382.609 115.871 384.32 116.688 385.196 115.636L408.615 87.5462C407.452 84.4486 408.126 80.7706 410.87 78.2903C413.433 75.9886 417.291 75.4766 420.334 77.09C425.25 79.7032 426.302 85.9419 422.942 89.9715C421.157 92.1128 418.548 93.1052 415.98 92.9603L393.21 120.272C392.334 121.323 393.444 122.842 394.713 122.349L435.765 105.957C436.459 105.678 437.04 105.14 437.337 104.447L451.107 73.7411C451.615 72.5973 451.314 71.2571 450.34 70.4457L424.275 48.7152L424.276 48.733Z" fill="#C7C2FF"/>
</svg>
