<svg width="40" height="40" viewBox="0 0 40 40" fill="none" xmlns="http://www.w3.org/2000/svg">
<path d="M30.0007 16.6665L35.7457 19.5398C36.0225 19.6782 36.2553 19.8908 36.4181 20.154C36.5808 20.4171 36.6672 20.7204 36.6673 21.0298V33.3332C36.6673 34.2172 36.3161 35.0651 35.691 35.6902C35.0659 36.3153 34.218 36.6665 33.334 36.6665H6.66732C5.78326 36.6665 4.93542 36.3153 4.31029 35.6902C3.68517 35.0651 3.33398 34.2172 3.33398 33.3332V21.0298C3.33415 20.7204 3.42046 20.4171 3.58324 20.154C3.74602 19.8908 3.97885 19.6782 4.25565 19.5398L10.0007 16.6665" fill="#F8F8F6"/>
<path d="M30.0007 16.6665L35.7457 19.5398C36.0225 19.6782 36.2553 19.8908 36.4181 20.154C36.5808 20.4171 36.6672 20.7204 36.6673 21.0298V33.3332C36.6673 34.2172 36.3161 35.0651 35.691 35.6902C35.0659 36.3153 34.218 36.6665 33.334 36.6665H6.66732C5.78326 36.6665 4.93542 36.3153 4.31029 35.6902C3.68517 35.0651 3.33398 34.2172 3.33398 33.3332V21.0298C3.33415 20.7204 3.42046 20.4171 3.58324 20.154C3.74602 19.8908 3.97885 19.6782 4.25565 19.5398L10.0007 16.6665" stroke="#F8F8F6" stroke-width="3.33333" stroke-linecap="round" stroke-linejoin="round"/>
<path d="M20 4.1665L10 8.33317V36.6665H30V10.8332L28.3333 7.49984L20 4.1665Z" fill="#F8F8F6"/>
<path d="M23.3327 38.3332V29.9998C23.3327 29.1158 22.9815 28.2679 22.3564 27.6428C21.7312 27.0177 20.8834 26.6665 19.9993 26.6665C19.1153 26.6665 18.2674 27.0177 17.6423 27.6428C17.0172 28.2679 16.666 29.1158 16.666 29.9998V38.3332" fill="#0A0A0A"/>
<path d="M30 8.3335V36.6668" stroke="#F8F8F6" stroke-width="3.33333" stroke-linecap="round" stroke-linejoin="round"/>
<path d="M6.66602 9.99978L18.5093 4.07812C18.972 3.84692 19.4821 3.72656 19.9993 3.72656C20.5166 3.72656 21.0267 3.84692 21.4893 4.07812L33.3327 9.99978" stroke="#F8F8F6" stroke-width="3.33333" stroke-linecap="round" stroke-linejoin="round"/>
<path d="M10 8.3335V36.6668" stroke="#F8F8F6" stroke-width="3.33333" stroke-linecap="round" stroke-linejoin="round"/>
<path d="M19.9993 18.3332C21.8403 18.3332 23.3327 16.8408 23.3327 14.9998C23.3327 13.1589 21.8403 11.6665 19.9993 11.6665C18.1584 11.6665 16.666 13.1589 16.666 14.9998C16.666 16.8408 18.1584 18.3332 19.9993 18.3332Z" fill="#0A0A0A"/>
</svg>
