<svg width="656" height="71" viewBox="0 0 656 71" fill="none" xmlns="http://www.w3.org/2000/svg">
<path d="M383.163 36.5135C383.163 38.0178 383.485 39.3394 384.09 40.4798C384.696 41.6196 385.586 42.5457 386.689 43.1865C387.79 43.8266 389.073 44.1487 390.503 44.1487C391.934 44.1487 393.253 43.8264 394.354 43.1865C395.457 42.5457 396.31 41.6558 396.915 40.516C397.52 39.3759 397.843 38.0189 397.843 36.5507V16.8809H408.023V53.9548C408.023 57.3114 407.22 60.2721 405.648 62.8319C404.077 65.3907 401.885 67.3641 399.111 68.7519C396.338 70.1392 393.166 70.8689 389.669 70.8689H389.564L389.546 70.7643L389.526 70.6489C385.057 70.6318 381.155 69.5415 377.897 67.4405L377.896 67.4396C374.758 65.3588 372.566 62.6176 371.361 59.2548L371.318 59.1365L371.437 59.0944L380.604 55.8675L380.724 55.8254L380.765 55.9457C381.336 57.6255 382.335 58.9811 383.762 59.9804L384.054 60.175C385.541 61.1156 387.407 61.589 389.597 61.589C391.248 61.589 392.679 61.3026 393.893 60.7676L394.117 60.6571C395.152 60.1237 396.021 59.3487 396.675 58.3786L396.811 58.1674C397.52 56.9947 397.879 55.5684 397.879 53.8462V48.1541L397.455 48.7682L397.454 48.7701C396.647 49.9082 395.618 50.8634 394.369 51.5619V51.5629C392.39 52.6627 390.049 53.2096 387.423 53.2096C384.361 53.2096 381.727 52.5531 379.566 51.2334C377.406 49.9147 375.759 48.0463 374.662 45.7045V45.7035C373.529 43.3265 372.984 40.5154 372.984 37.3477V16.8447H383.163V36.5135ZM456.964 1.68878C460.929 1.68882 464.641 2.38076 468.027 3.72861C471.412 5.0763 474.361 7.00654 476.873 9.44717C479.385 11.8879 481.351 14.7669 482.699 18.0456C484.083 21.3256 484.775 24.9328 484.775 28.7552C484.774 32.5781 484.047 36.1847 482.663 39.4638C481.28 42.7429 479.277 45.6213 476.802 48.0974L476.801 48.0993L476.8 48.0983C474.288 50.5389 471.339 52.4703 467.991 53.8541H467.99C464.641 55.202 460.928 55.8939 457 55.8939H456.928C452.999 55.8939 449.323 55.2018 445.938 53.8541H445.937C442.588 52.5066 439.602 50.5756 437.125 48.0974V48.0964C434.613 45.6553 432.647 42.7409 431.264 39.4638C429.88 36.1847 429.153 32.5781 429.152 28.7552C429.152 24.9328 429.844 21.3256 431.228 18.0456C432.611 14.7671 434.578 11.8889 437.054 9.44815V9.44717C439.566 7.00597 442.516 5.11211 445.899 3.72861H445.9C449.251 2.38046 453 1.68878 456.964 1.68878ZM66.4979 15.9011C69.518 15.9011 72.2532 16.3746 74.5545 17.3249H74.5535C76.8887 18.2741 78.8613 19.626 80.4687 21.3439C82.0744 23.0603 83.3151 25.0691 84.1542 27.3324C84.9932 29.5953 85.4303 32.1125 85.4304 34.7368C85.4304 35.4962 85.431 36.2307 85.3208 36.9663C85.2485 37.5449 85.1748 38.0623 85.0265 38.5446L84.9991 38.6326H57.7078V38.8937C57.8878 39.8996 58.1395 40.8654 58.496 41.7217L58.6339 42.0336C59.2997 43.4712 60.2415 44.6521 61.5049 45.5099L61.7806 45.6889L61.7816 45.6898C63.2443 46.6179 65.0682 47.1205 67.1863 47.1205H81.1541V55.8919H67.1863V55.891C63.1597 55.8855 59.5975 54.9758 56.6126 53.1911C53.622 51.4028 51.2868 48.9565 49.6815 45.9265V45.9275C48.0401 42.8979 47.2388 39.5048 47.2388 35.8242C47.2388 32.1429 48.1127 28.5679 49.791 25.5742L49.792 25.5732C51.5054 22.5821 53.8039 20.2091 56.686 18.4934C59.5696 16.7769 62.8897 15.9011 66.4979 15.9011ZM166.514 15.9011C170.23 15.9011 173.552 16.7761 176.365 18.5306H176.364C179.069 20.2129 181.043 22.5916 182.213 25.5898L182.256 25.6993L182.149 25.7482L174.938 29.1209L174.818 29.1766L174.769 29.0544C174.164 27.5576 173.131 26.3438 171.737 25.4138L171.445 25.2319C169.98 24.352 168.327 23.9108 166.514 23.9108C165.083 23.9108 163.95 24.2334 163.143 24.7948C162.308 25.423 161.892 26.2553 161.892 27.3392C161.892 27.897 162.031 28.4178 162.343 28.9038C162.653 29.3855 163.139 29.7712 163.816 30.1281L164.332 30.3696C164.881 30.6103 165.522 30.8465 166.225 31.0629H166.224L172.42 32.9121H172.419C175.587 33.8229 178.039 35.2469 179.69 37.155C181.342 39.0288 182.185 41.3439 182.185 44.0549C182.185 46.3982 181.563 48.4905 180.352 50.2536C179.142 52.0151 177.419 53.4076 175.227 54.3948C173.034 55.3824 170.442 55.8919 167.457 55.8919C163.269 55.8919 159.585 54.908 156.481 52.8987C153.487 50.9987 151.403 48.4023 150.27 45.1843L150.233 45.0787L150.334 45.0298L157.51 41.6219L157.619 41.5691L157.675 41.6777C158.681 43.655 160.008 45.1984 161.657 46.346H161.658C163.376 47.5634 165.344 48.1727 167.457 48.1727C169.036 48.1726 170.238 47.8486 171.078 47.2183C171.948 46.5557 172.369 45.6516 172.369 44.4538C172.369 43.828 172.196 43.3095 171.886 42.8599V42.8609C171.571 42.4414 171.151 42.0541 170.551 41.7002L170.073 41.4596C169.574 41.2226 169.011 41.0014 168.368 40.8406L168.364 40.8396L161.769 38.9905C158.671 38.115 156.255 36.653 154.569 34.7094L154.568 34.7084C152.918 32.763 152.075 30.4132 152.075 27.7382C152.075 25.3947 152.697 23.3028 153.871 21.5405L153.872 21.5395C155.082 19.7788 156.768 18.3868 158.961 17.3992C161.154 16.4119 163.672 15.9011 166.514 15.9011ZM227.359 15.9011C231.111 15.9011 234.611 16.7761 237.675 18.4915C240.738 20.2059 243.254 22.6141 245.077 25.5693L245.078 25.5702C246.902 28.5645 247.85 32.0321 247.85 35.8965C247.85 39.7614 246.902 43.1934 245.078 46.1876C243.255 49.1794 240.738 51.587 237.675 53.3016C234.611 55.017 231.148 55.8919 227.359 55.8919C223.57 55.8919 220.106 55.0176 217.006 53.3025C213.907 51.588 211.391 49.1794 209.568 46.1876C207.743 43.1933 206.795 39.725 206.795 35.8965C206.795 32.0684 207.743 28.5646 209.568 25.5702C211.391 22.5778 213.908 20.2057 217.006 18.4915C220.106 16.7764 223.607 15.9011 227.359 15.9011ZM637.068 15.9011C640.088 15.9011 642.823 16.3746 645.124 17.3249H645.123C647.458 18.2741 649.431 19.626 651.038 21.3439C652.644 23.0603 653.885 25.0691 654.724 27.3324C655.563 29.5952 656 32.0761 656 34.7368C656 35.4962 656.001 36.2307 655.89 36.9663C655.818 37.5425 655.744 38.0982 655.595 38.5465L655.567 38.6326H628.315V38.8937C628.495 39.8995 628.745 40.8654 629.102 41.7217L629.241 42.0336C629.958 43.5728 631.017 44.82 632.387 45.6898C633.85 46.6179 635.674 47.1205 637.792 47.1205H651.76V55.8919H637.792C633.751 55.8919 630.176 54.9811 627.182 53.1911C624.192 51.4028 621.856 48.9565 620.251 45.9265V45.9275C618.61 42.8979 617.808 39.5048 617.808 35.8242C617.808 32.1429 618.682 28.5679 620.361 25.5742C622.038 22.5816 624.374 20.2087 627.256 18.4934C630.139 16.7769 633.459 15.9011 637.068 15.9011ZM545.763 42.1353C545.763 43.6346 546.182 44.7668 546.983 45.5295C547.786 46.2933 548.992 46.7055 550.604 46.7235L550.728 46.7244V55.4949H548.919V55.4568C544.365 55.4384 540.928 54.4224 538.811 52.4146C536.675 50.3879 535.584 47.1933 535.584 42.8961V1.72496H545.763V42.1353ZM312.011 16.5709C314.874 16.5709 317.338 17.3324 319.44 18.8914C321.542 20.4143 323.063 22.5906 324.005 25.3463L324.695 25.2378V17.0784H335.602V54.7889L324.695 54.8613V46.5944L324.005 46.4858C323.099 49.2414 321.578 51.4169 319.476 52.9398C317.374 54.4626 314.874 55.2602 312.011 55.2602V55.2241C308.713 55.224 305.814 54.3544 303.422 52.6865C300.994 50.9823 299.11 48.661 297.805 45.7603C296.465 42.8595 295.813 39.5234 295.813 35.8975C295.813 32.2716 296.501 28.9716 297.805 26.0709C299.11 23.1703 301.031 20.8136 303.422 19.1095C305.814 17.4053 308.713 16.5709 312.011 16.5709ZM20.0032 2.68424C23.5546 2.68424 28.3021 3.11867 30.9475 4.35151C33.7378 5.65682 35.6217 7.18008 36.89 9.21053C38.3396 11.5312 39.1372 14.4322 39.1372 17.188C39.1371 19.9436 38.1952 24.1494 36.4197 26.3975C34.3903 28.9357 31.1285 30.3137 29.824 30.8214L28.7366 31.2204L29.8601 31.5108C35.4408 32.9974 43.6673 43.5124 43.8485 55.1155H31.5636V55.0793C31.4549 46.0506 26.7072 38.7259 19.4234 36.2965C17.3579 35.6076 15.3284 35.2091 11.2699 35.2091H10.9081V55.1155H0V2.68424H20.0032ZM275.556 15.8659C278.437 15.8659 280.996 16.486 283.155 17.6945C285.313 18.9024 286.997 20.5877 288.204 22.7471C289.411 24.9077 290.031 27.4676 290.031 30.3501V55.0598H279.852V32.5982C279.852 31.0562 279.529 29.6992 278.925 28.5967L278.924 28.5958C278.319 27.4571 277.431 26.5673 276.364 25.9624H276.363C275.261 25.3223 273.979 25.0001 272.512 25.0001C271.047 25.0002 269.836 25.321 268.696 25.9624C267.558 26.6031 266.704 27.4927 266.099 28.5967C265.495 29.6992 265.172 31.0562 265.172 32.5982V55.0226H254.992V16.7H264.447V21.0799L264.948 21.2109C265.77 19.7037 266.903 18.5049 268.319 17.6759L268.611 17.5126C270.59 16.4132 272.93 15.8659 275.556 15.8659ZM513.17 15.8659C516.051 15.8659 518.609 16.486 520.769 17.6945C522.927 18.9024 524.61 20.5877 525.818 22.7471C527.025 24.9077 527.645 27.4676 527.645 30.3501V55.0598H517.289L517.502 54.8466V32.5982C517.502 31.0562 517.179 29.6992 516.575 28.5967C515.968 27.4906 515.115 26.5666 514.016 25.9633L514.013 25.9624C512.911 25.3223 511.629 25.0001 510.162 25.0001C508.697 25.0002 507.486 25.3209 506.346 25.9624C505.209 26.6024 504.354 27.4908 503.712 28.5958L503.713 28.5967C503.109 29.6992 502.786 31.0562 502.786 32.5982V55.0226H492.606V16.7H502.061V21.0799L502.562 21.2109C503.384 19.7037 504.516 18.5049 505.933 17.6759L506.225 17.5126C508.203 16.4132 510.544 15.8659 513.17 15.8659ZM596.916 15.8659C599.797 15.8659 602.356 16.486 604.515 17.6945C606.673 18.9024 608.357 20.5877 609.564 22.7471C610.772 24.9077 611.392 27.4676 611.392 30.3501V55.0598H601.035L601.248 54.8466V32.5982C601.248 31.0562 600.925 29.6992 600.321 28.5967C599.715 27.4906 598.861 26.5666 597.762 25.9633L597.759 25.9624C596.658 25.3223 595.375 25.0001 593.908 25.0001C592.443 25.0002 591.233 25.3209 590.093 25.9624C588.956 26.6024 588.1 27.4908 587.458 28.5958L587.459 28.5967C586.855 29.6992 586.532 31.0562 586.532 32.5982V55.0226H576.353V16.7H585.808V21.0799L586.308 21.2109C587.13 19.7037 588.263 18.5049 589.679 17.6759L589.971 17.5126C591.95 16.4132 594.29 15.8659 596.916 15.8659ZM99.8813 16.7831L108.388 40.4231L116.895 16.7831L116.925 16.7H127.923L127.855 16.8711L112.853 54.9444L112.821 55.0236H103.918L103.887 54.9434L88.9204 16.8711L88.8529 16.7H99.851L99.8813 16.7831ZM143.774 55.0236H133.594V16.7H143.774V55.0236ZM199.653 55.0236H189.473V16.7H199.653V55.0236ZM366.458 25.0725H363.362C360.708 25.0725 358.53 25.8971 356.89 27.5025C355.252 29.142 354.391 31.4277 354.391 34.375V55.0236H344.211V16.7H353.666V22.1624L354.155 22.265C354.991 20.3041 356.115 18.8614 357.535 18.0231L357.898 17.8158C359.737 16.8144 361.949 16.3011 364.412 16.301H366.458V25.0725ZM567.724 55.0236H557.544V16.7H567.724V55.0236ZM227.359 24.963C225.386 24.963 223.635 25.4287 222.136 26.3926C220.633 27.3598 219.451 28.6498 218.591 30.263C217.769 31.8743 217.338 33.7754 217.338 35.8603C217.338 37.8162 217.716 39.6423 218.442 41.1907L218.592 41.4968V41.4977C219.415 43.1439 220.631 44.4323 222.134 45.3632C223.634 46.2922 225.386 46.7587 227.359 46.7587C229.332 46.7587 231.084 46.2914 232.547 45.3632C234.013 44.4328 235.194 43.1448 236.054 41.4958C236.913 39.8493 237.308 37.9476 237.308 35.8603C237.308 33.7754 236.877 31.8743 236.054 30.263L235.89 29.9638C235.05 28.4887 233.955 27.2996 232.547 26.3936L232.269 26.2244C230.863 25.4037 229.207 24.963 227.359 24.963ZM456.928 11.1858C454.479 11.1858 452.211 11.6175 450.125 12.4453C448.039 13.2728 446.205 14.4963 444.622 16.08C443.04 17.663 441.817 19.5343 440.953 21.6588C440.091 23.7811 439.659 26.1586 439.659 28.7552C439.659 31.3515 440.091 33.7287 440.954 35.8877C441.818 38.0481 443.04 39.9194 444.621 41.4655C446.204 43.0134 448.039 44.2372 450.126 45.1012C452.211 45.9646 454.479 46.3968 456.928 46.3968C459.377 46.3968 461.644 45.9645 463.729 45.1012C465.815 44.2372 467.65 43.0134 469.233 41.4655C470.814 39.9199 472.037 38.0129 472.901 35.8877L473.058 35.4809C473.816 33.4312 474.197 31.1893 474.197 28.7552C474.197 26.1586 473.764 23.7811 472.901 21.6588C472.038 19.5344 470.814 17.663 469.232 16.08C467.65 14.4963 465.815 13.2728 463.73 12.4453C461.644 11.6176 459.377 11.1859 456.928 11.1858ZM315.816 25.9624C314.258 25.9624 312.772 26.3616 311.395 27.1593C310.018 27.9569 308.931 29.1169 308.17 30.6033C307.409 32.0899 307.01 33.867 307.01 35.8975C307.01 37.928 307.409 39.7413 308.206 41.1917C309.003 42.6419 310.09 43.8019 311.431 44.5633C312.772 45.361 314.258 45.7602 315.852 45.7603C317.446 45.7603 318.896 45.361 320.273 44.5633C321.614 43.7656 322.738 42.6421 323.535 41.1917C324.332 39.7413 324.767 37.9642 324.767 35.8975C324.767 33.8308 324.368 32.0899 323.571 30.6033C322.774 29.1168 321.65 27.9569 320.309 27.1593C318.968 26.3617 317.483 25.9624 315.888 25.9624H315.816ZM66.4793 23.9108C64.5876 23.9138 62.9523 24.38 61.6037 25.3033C60.2511 26.2293 59.2138 27.5841 58.5332 29.3751L58.5341 29.3761C58.3534 29.8824 58.1754 30.4189 58.0687 30.9886L58.0667 30.9954L57.9973 31.2751H74.6347V31.0121C74.5263 30.3976 74.4197 29.7963 74.2084 29.2324L74.2064 29.2275C73.6711 27.5852 72.7082 26.3013 71.3882 25.3375V25.3365C70.0407 24.3793 68.4066 23.9137 66.4793 23.9108ZM637.37 23.9108H637.068C635.168 23.9108 633.526 24.377 632.173 25.3033C630.821 26.2293 629.784 27.5841 629.103 29.3751L629.104 29.3761C628.923 29.8825 628.745 30.4193 628.638 30.9534L628.636 30.9593L628.567 31.2389H645.204V30.9749C645.096 30.3608 644.989 29.7599 644.778 29.1962L644.776 29.1913C644.241 27.549 643.278 26.2651 641.958 25.3013V25.3003C640.678 24.3912 639.14 23.9265 637.337 23.8795L637.37 23.9108ZM10.8719 26.6156H18.9892C21.4532 26.6155 23.8449 25.9267 25.3668 24.7303C27.1788 23.3161 28.012 21.3934 28.012 18.4201C28.0118 16.2085 26.9614 14.1417 25.1859 12.8726C23.3378 11.5311 20.511 11.3863 18.5179 11.3863H10.8719V26.6156ZM138.612 0C140.713 5.29293e-05 142.453 0.616421 143.793 1.84915C145.134 3.08189 145.822 4.64103 145.822 6.4901C145.822 8.33928 145.17 9.75353 143.793 10.9863C142.453 12.2191 140.713 12.8364 138.612 12.8365V12.8726C136.51 12.8726 134.77 12.2563 133.393 11.0235C132.016 9.79077 131.328 8.34003 131.328 6.52726C131.328 4.7143 132.016 3.11815 133.393 1.88533C134.77 0.652491 136.51 0 138.612 0ZM194.636 0C196.737 5.29293e-05 198.477 0.616421 199.817 1.84915C201.158 3.08189 201.846 4.64103 201.846 6.4901C201.846 8.33928 201.194 9.75353 199.817 10.9863C198.477 12.2191 196.737 12.8364 194.636 12.8365V12.8726C192.534 12.8726 190.794 12.2563 189.417 11.0235C188.04 9.79077 187.352 8.34003 187.351 6.52726C187.351 4.7143 188.04 3.11815 189.417 1.88533C190.794 0.652491 192.534 0 194.636 0ZM562.816 0C564.918 5.29291e-05 566.657 0.61643 567.998 1.84915C569.339 3.08189 570.027 4.64103 570.027 6.4901C570.027 8.33929 569.375 9.75353 567.998 10.9863C566.657 12.2191 564.918 12.8364 562.816 12.8365V12.8726C560.714 12.8726 558.974 12.2563 557.597 11.0235C556.22 9.79077 555.532 8.34003 555.532 6.52726C555.532 4.7143 556.22 3.11816 557.597 1.88533C558.974 0.652491 560.714 0 562.816 0Z" fill="#272727"/>
</svg>
