<svg width="48" height="48" viewBox="0 0 48 48" fill="none" xmlns="http://www.w3.org/2000/svg">
<path d="M36.75 4.5C34.68 4.5 33 6.18 33 8.25L33 39.75C33 41.82 34.68 43.5 36.75 43.5L38.25 43.5C40.32 43.5 42 41.82 42 39.75L42 8.25C42 6.178 40.32 4.5 38.25 4.5L36.75 4.5ZM19.5 17.25C19.5 15.178 21.18 13.5 23.25 13.5L24.75 13.5C26.822 13.5 28.5 15.18 28.5 17.25L28.5 39.75C28.5 41.82 26.82 43.5 24.75 43.5L23.25 43.5C22.2554 43.5 21.3016 43.1049 20.5983 42.4016C19.8951 41.6984 19.5 40.7446 19.5 39.75L19.5 17.25ZM6 26.25C6 24.178 7.68 22.5 9.75 22.5L11.25 22.5C13.322 22.5 15 24.18 15 26.25L15 39.75C15 41.82 13.32 43.5 11.25 43.5L9.75 43.5C8.75544 43.5 7.80161 43.1049 7.09835 42.4016C6.39509 41.6984 6 40.7446 6 39.75L6 26.25Z" fill="#FB943C"/>
</svg>
