<svg width="48" height="48" viewBox="0 0 48 48" fill="none" xmlns="http://www.w3.org/2000/svg">
<path fill-rule="evenodd" clip-rule="evenodd" d="M29.2299 3.18972C29.5227 3.35271 29.7526 3.60908 29.8827 3.91792C30.0128 4.22677 30.0358 4.5703 29.9479 4.89372L25.9639 19.4997L40.4999 19.4997C40.7922 19.4997 41.0782 19.5852 41.3226 19.7455C41.567 19.9059 41.7593 20.1341 41.8757 20.4023C41.9921 20.6704 42.0277 20.9667 41.978 21.2548C41.9283 21.5428 41.7955 21.8101 41.5959 22.0237L20.5959 44.5237C20.3672 44.7693 20.0627 44.9311 19.7312 44.9832C19.3996 45.0353 19.0602 44.9748 18.7671 44.8112C18.4741 44.6476 18.2444 44.3905 18.1147 44.081C17.985 43.7714 17.9629 43.4273 18.0519 43.1037L22.0359 28.4997L7.49991 28.4997C7.20758 28.4997 6.92164 28.4143 6.67721 28.2539C6.43279 28.0936 6.24055 27.8653 6.12412 27.5972C6.00769 27.329 5.97214 27.0327 6.02185 26.7447C6.07155 26.4566 6.20435 26.1893 6.40391 25.9757L27.4039 3.47572C27.6326 3.23101 27.9367 3.0699 28.2676 3.01807C28.5986 2.96624 28.9373 3.02666 29.2299 3.18972Z" fill="#A280F8"/>
</svg>
