<svg width="48" height="48" viewBox="0 0 48 48" fill="none" xmlns="http://www.w3.org/2000/svg">
<path d="M23.3999 5.6096C23.5891 5.52701 23.7934 5.48437 23.9999 5.48437C24.2064 5.48437 24.4106 5.52701 24.5999 5.6096C31.996 8.84241 39.051 12.8054 45.6599 17.4396C45.8928 17.6029 46.0744 17.8291 46.1837 18.0918C46.2929 18.3545 46.3252 18.6428 46.2767 18.9231C46.2283 19.2034 46.1012 19.4642 45.9101 19.675C45.7191 19.8858 45.4721 20.0379 45.1979 20.1136C38.3367 22.0086 31.6976 24.6315 25.3939 27.9376L25.3879 27.9416C25.1599 28.0616 24.9339 28.1796 24.7079 28.3016C24.4904 28.4179 24.2475 28.4787 24.0009 28.4787C23.7542 28.4787 23.5114 28.4179 23.2939 28.3016C20.5902 26.8587 17.8227 25.5387 14.9999 24.3456L14.9999 23.8976C14.9999 23.6356 15.1339 23.4016 15.3439 23.2756C18.3626 21.4462 21.4683 19.7643 24.6499 18.2356C25.0084 18.0632 25.2839 17.7554 25.4155 17.38C25.5472 17.0045 25.5243 16.5922 25.3519 16.2336C25.1795 15.875 24.8717 15.5996 24.4963 15.468C24.1208 15.3363 23.7085 15.3592 23.3499 15.5316C20.0814 17.1022 16.891 18.8302 13.7899 20.7096C13.3487 20.9773 12.9681 21.3339 12.6723 21.7567C12.3765 22.1796 12.172 22.6594 12.0719 23.1656C9.0343 21.9968 5.94125 20.9776 2.80388 20.1116C2.52967 20.0359 2.28264 19.8838 2.09162 19.673C1.9006 19.4622 1.77346 19.2014 1.72502 18.9211C1.67659 18.6408 1.70887 18.3525 1.81809 18.0898C1.92731 17.8271 2.10897 17.6009 2.34188 17.4376C8.95026 12.8042 16.0045 8.84192 23.3999 5.6096Z" fill="#38BFF8"/>
<path d="M26.1215 30.9459C31.034 28.3213 36.1637 26.1252 41.4535 24.3819C41.7215 27.2099 41.8935 30.0679 41.9635 32.9499C41.9712 33.252 41.8876 33.5494 41.7234 33.8032C41.5592 34.0569 41.3222 34.2551 41.0435 34.3719C35.374 36.7397 29.9457 39.6478 24.8335 43.0559C24.5871 43.2201 24.2976 43.3078 24.0015 43.3078C23.7054 43.3078 23.4159 43.2201 23.1695 43.0559C18.058 39.6479 12.6303 36.7398 6.96149 34.3719C6.68269 34.2556 6.4455 34.0578 6.28099 33.8044C6.11648 33.551 6.03231 33.2539 6.03949 32.9519C6.10949 30.0679 6.28149 27.2119 6.54949 24.3799C8.39149 24.9879 10.2095 25.6479 12.0015 26.3599L12.0015 28.8999C11.5694 29.1489 11.2061 29.5016 10.9446 29.9263C10.6831 30.351 10.5316 30.8341 10.5038 31.3321C10.476 31.83 10.5728 32.3271 10.7854 32.7782C10.998 33.2293 11.3197 33.6204 11.7215 33.9159C11.5415 34.6759 11.2775 35.4219 10.9275 36.1359C11.8315 36.5619 12.7295 37.0039 13.6195 37.4559C14.1212 36.4354 14.4915 35.3555 14.7215 34.2419C15.2273 34.017 15.661 33.6566 15.9746 33.2005C16.2882 32.7444 16.4696 32.2105 16.4985 31.6577C16.5275 31.105 16.403 30.555 16.1388 30.0686C15.8746 29.5822 15.481 29.1784 15.0015 28.9019L15.0015 27.6119C17.3377 28.6325 19.6328 29.7447 21.8815 30.9459C22.5338 31.2943 23.2619 31.4766 24.0015 31.4766C24.741 31.4766 25.4692 31.2943 26.1215 30.9459Z" fill="#38BFF8"/>
<path d="M8.92402 38.9238C9.76402 38.0858 10.43 37.1438 10.924 36.1338C11.83 36.5618 12.728 37.0038 13.618 37.4578C12.9636 38.787 12.0946 39.9992 11.046 41.0458C10.7617 41.3108 10.3856 41.455 9.99698 41.4481C9.60837 41.4413 9.2376 41.2839 8.96278 41.009C8.68795 40.7342 8.53053 40.3634 8.52367 39.9748C8.51681 39.5862 8.66106 39.2101 8.92602 38.9258L8.92402 38.9238Z" fill="#38BFF8"/>
</svg>
