<svg xmlns="http://www.w3.org/2000/svg" width="18" height="17.097" viewBox="0 0 18 17.097" fill="none">
  <path d="M 14.393 3.596 L 13.494 3.596 L 13.494 1.798 C 13.494 0.81 12.684 0 11.696 0 L 6.297 0 C 5.309 0 4.499 0.81 4.499 1.798 L 4.499 3.596 L 3.6 3.596 C 1.613 3.596 0 5.206 0 7.196 L 0 13.497 C 0 15.485 1.609 17.097 3.6 17.097 L 14.4 17.097 C 16.387 17.097 18 15.488 18 13.497 L 18 7.196 C 18 5.209 16.391 3.596 14.4 3.596 L 14.393 3.596 Z M 6.294 1.798 L 11.692 1.798 L 11.692 3.596 L 6.294 3.596 L 6.294 1.798 Z M 12.591 8.995 L 5.391 8.995 C 4.895 8.995 4.492 8.591 4.492 8.096 C 4.492 7.6 4.895 7.196 5.391 7.196 L 12.591 7.196 C 13.087 7.196 13.49 7.6 13.49 8.096 C 13.49 8.591 13.087 8.995 12.591 8.995 Z" fill="currentColor" fill-rule="nonzero"/>
</svg>
