<svg xmlns="http://www.w3.org/2000/svg" width="15" height="20" viewBox="0 0 15 20" fill="none">
  <path d="M 15 11.229 L 15 11.751 C 15 14.29 13.062 16.424 10.442 17.052 C 11.222 17.697 11.666 18.624 11.666 19.599 L 11.666 19.739 C 11.666 19.883 11.542 20 11.389 20 L 3.057 20 C 2.904 20 2.78 19.883 2.78 19.739 L 2.78 19.599 C 2.78 18.72 3.141 17.876 3.789 17.244 L 0.834 17.244 C 0.375 17.244 0 16.894 0 16.462 C 0 16.03 0.372 15.676 0.831 15.676 L 8.854 15.676 C 11.324 15.676 13.331 13.916 13.331 11.751 L 13.331 11.229 C 13.328 10.313 12.967 9.431 12.318 8.748 C 11.823 8.947 11.258 8.909 10.799 8.642 L 8.784 10.539 C 8.351 10.948 7.648 10.948 7.214 10.539 L 3.786 7.31 C 3.352 6.902 3.352 6.239 3.786 5.831 L 8.708 1.195 C 8.966 0.951 9.338 0.842 9.699 0.907 L 10.65 1.075 C 11.01 1.14 11.382 1.03 11.641 0.787 L 12.151 0.306 C 12.584 -0.102 13.288 -0.102 13.721 0.306 L 14.65 1.181 C 15.084 1.59 15.084 2.252 14.65 2.66 L 14.14 3.141 C 13.881 3.384 13.765 3.734 13.834 4.074 L 14.013 4.97 C 14.082 5.309 13.965 5.66 13.707 5.903 L 13.084 6.49 C 13.291 6.775 13.371 7.121 13.313 7.461 C 14.384 8.456 14.989 9.812 14.996 11.229 L 15 11.229 Z M 3.68 11.469 C 4.113 11.877 4.817 11.877 5.25 11.469 L 5.549 11.188 C 5.658 11.085 5.658 10.92 5.549 10.817 L 3.377 8.772 C 3.268 8.669 3.093 8.669 2.984 8.772 L 2.685 9.053 C 2.252 9.462 2.252 10.124 2.685 10.532 L 3.676 11.466 L 3.68 11.469 Z M 2.776 14.63 L 8.886 14.63 C 9.345 14.63 9.721 14.276 9.717 13.844 C 9.717 13.411 9.345 13.061 8.886 13.061 L 2.776 13.061 C 2.317 13.061 1.942 13.415 1.946 13.847 C 1.946 14.28 2.317 14.63 2.776 14.63 Z" fill="currentColor" fill-rule="nonzero"/>
</svg>
