<svg xmlns="http://www.w3.org/2000/svg" width="18" height="17.995" viewBox="0 0 18 17.995" fill="none">
  <path d="M 8.999 0 C 3.814 0 -0.539 4.454 0.054 9.987 C 0.497 14.121 3.811 17.464 7.944 17.936 C 8.288 17.975 8.632 17.995 8.98 17.995 C 14.09 17.995 18 13.845 18 8.997 C 18 4.15 13.959 0 9.003 0 L 8.999 0 Z M 9.74 12.783 L 9.74 13.354 C 9.74 13.767 9.402 14.104 8.989 14.104 C 8.576 14.104 8.239 13.767 8.239 13.354 L 8.239 12.783 C 7.773 12.626 7.354 12.324 7.069 11.905 C 6.836 11.561 6.918 11.095 7.256 10.856 C 7.6 10.623 8.065 10.705 8.298 11.053 C 8.842 11.833 10.284 11.18 9.694 10.092 C 9.583 9.889 9.334 9.755 9.058 9.755 C 8.075 9.755 7.183 9.178 6.839 8.329 C 6.298 6.959 7.062 5.602 8.242 5.208 L 8.242 4.645 C 8.242 4.225 8.58 3.894 8.993 3.894 C 9.406 3.894 9.743 4.225 9.743 4.645 L 9.743 5.208 C 10.202 5.359 10.612 5.657 10.897 6.064 C 11.136 6.401 11.054 6.867 10.717 7.106 C 10.379 7.345 9.907 7.264 9.668 6.926 C 9.36 6.483 8.619 6.49 8.304 6.949 C 8.213 7.093 8.078 7.375 8.236 7.765 C 8.347 8.05 8.694 8.253 9.062 8.253 C 9.888 8.253 10.635 8.679 11.018 9.371 C 11.776 10.781 11.081 12.341 9.74 12.783 Z" fill="currentColor" fill-rule="nonzero"/>
</svg>
