<svg xmlns="http://www.w3.org/2000/svg" width="10.677" height="12" viewBox="0 0 10.677 12" fill="none">
  <path d="M 3.75 0.804 C 3.982 0.209 4.409 0 5.068 0 L 5.709 0 C 6.318 0 6.859 0.146 7.155 0.965 L 10.414 9.827 C 10.513 10.085 10.677 10.551 10.677 10.84 C 10.677 11.485 10.1 12 9.409 12 C 8.818 12 8.391 11.791 8.191 11.276 L 7.5 9.346 L 3.159 9.346 L 2.45 11.276 C 2.269 11.791 1.891 12 1.25 12 C 0.509 12 0 11.551 0 10.84 C 0 10.551 0.164 10.085 0.264 9.827 L 3.75 0.804 Z M 5.378 2.862 L 5.346 2.862 L 3.75 7.511 L 6.909 7.511 L 5.381 2.862 L 5.378 2.862 Z" fill="currentColor" fill-rule="nonzero"/>
</svg>
