<svg xmlns="http://www.w3.org/2000/svg" width="14.628" height="14.521" viewBox="0 0 14.628 14.521" fill="none">
  <path d="M 9.589 0.166 C 9.411 -0.012 9.131 -0.052 8.909 0.072 L 2.952 3.419 C 2.818 3.495 2.719 3.619 2.676 3.765 L 0.012 12.712 C -0.068 12.978 0.263 13.174 0.46 12.978 L 5.71 7.727 C 5.532 7.079 5.736 6.348 6.336 5.897 C 6.896 5.479 7.686 5.446 8.272 5.828 C 9.218 6.446 9.316 7.727 8.563 8.48 C 8.163 8.881 7.617 9.033 7.1 8.957 L 1.995 14.062 C 1.799 14.258 1.995 14.586 2.261 14.51 L 10.863 11.948 C 11.008 11.904 11.135 11.806 11.208 11.671 L 14.556 5.715 C 14.679 5.493 14.643 5.217 14.461 5.035 L 9.589 0.163 L 9.589 0.166 Z" fill="currentColor" fill-rule="nonzero"/>
</svg>
