<svg xmlns="http://www.w3.org/2000/svg" width="20" height="20" viewBox="0 0 20 20" fill="none">
  <path d="M 19.336 9.734 L 16.343 8.107 C 15.91 7.859 15.63 7.761 15.34 7.761 C 15.316 7.761 15.264 7.765 15.19 7.775 L 15.19 1.809 C 15.176 1.181 14.858 0.95 13.936 0.793 C 13.936 0.793 8.453 0 8.173 0 C 7.883 0 7.6 0.098 7.171 0.346 L 4.181 1.973 C 3.678 2.284 3.517 2.903 3.514 3.168 L 3.514 9.273 C 2.738 9.378 1.254 9.619 1.254 9.619 C 0.332 9.776 0.014 10.007 0 10.636 L 0 16.94 C 0 17.44 0.196 17.817 0.555 18.009 L 3.922 19.822 C 3.922 19.822 4.401 20.059 5.124 19.986 L 10.761 19.218 C 11.195 19.162 11.544 18.833 11.645 18.428 L 12.246 18.756 C 12.246 18.756 12.724 18.994 13.451 18.921 L 19.088 18.152 C 19.602 18.086 20 17.635 20 17.129 L 20 10.933 C 20 10.667 19.839 10.049 19.336 9.738 L 19.336 9.734 Z M 4.188 3.168 C 4.188 3.049 4.286 2.969 4.408 2.965 C 4.45 2.965 10.059 3.699 10.059 3.699 C 10.234 3.723 10.388 3.891 10.384 4.059 L 10.402 4.059 L 10.402 10.297 C 10.402 10.416 10.318 10.496 10.192 10.496 C 10.178 10.496 4.513 9.724 4.513 9.724 C 4.335 9.7 4.181 9.532 4.184 9.364 L 4.184 3.168 L 4.188 3.168 Z M 11.009 18.194 C 11.009 18.362 10.856 18.529 10.681 18.554 C 10.681 18.554 5.016 19.326 5.002 19.326 C 4.879 19.326 4.796 19.245 4.792 19.127 L 4.792 12.889 L 4.81 12.889 C 4.81 12.717 4.96 12.553 5.134 12.529 C 5.134 12.529 10.747 11.795 10.786 11.795 C 10.908 11.795 11.006 11.876 11.006 11.998 L 11.006 18.194 L 11.009 18.194 Z M 19.333 17.125 C 19.333 17.293 19.179 17.461 19.004 17.485 C 19.004 17.485 13.339 18.257 13.325 18.257 C 13.203 18.257 13.119 18.177 13.116 18.058 L 13.116 11.82 L 13.133 11.82 C 13.133 11.649 13.283 11.484 13.458 11.46 C 13.458 11.46 19.071 10.726 19.109 10.726 C 19.231 10.726 19.329 10.807 19.329 10.929 L 19.329 17.125 L 19.333 17.125 Z" fill="currentColor" fill-rule="nonzero"/>
</svg>
