<svg xmlns="http://www.w3.org/2000/svg" width="17.096" height="20" viewBox="0 0 17.096 20" fill="none">
  <path d="M 7.08 13.944 C 10.92 13.944 14.033 10.838 14.036 6.998 C 14.036 3.158 10.93 0.045 7.09 0.042 C 5.346 0.042 3.669 0.694 2.382 1.871 C 2.176 1.928 2.013 2.091 1.956 2.297 C -0.639 5.119 -0.455 9.516 2.368 12.111 C 3.651 13.292 5.332 13.944 7.076 13.944 L 7.08 13.944 Z M 5.133 12.242 C 6.321 11.859 7.672 11.033 8.977 9.835 L 10.544 11.402 C 9.009 12.6 6.963 12.919 5.133 12.246 L 5.133 12.242 Z M 12.193 5.445 C 12.246 5.307 12.292 5.176 12.334 5.045 C 13.008 6.871 12.689 8.916 11.49 10.452 L 9.923 8.884 C 10.948 7.768 11.742 6.562 12.189 5.445 L 12.193 5.445 Z M 11.047 3.024 C 11.342 3.318 11.299 4.052 10.944 4.945 C 10.498 6.062 9.633 7.296 8.509 8.42 C 6.087 10.842 3.697 11.54 3.116 10.959 C 2.573 10.416 3.148 8.299 5.19 6.052 L 6.853 7.714 C 7.115 7.977 7.541 7.977 7.803 7.714 C 8.065 7.452 8.065 7.027 7.803 6.764 L 6.147 5.108 C 7.867 3.548 9.508 2.836 10.427 2.836 C 10.654 2.818 10.877 2.885 11.051 3.031 L 11.047 3.024 Z M 7.08 1.385 C 7.746 1.385 8.409 1.506 9.033 1.74 C 7.842 2.123 6.495 2.946 5.186 4.147 L 3.619 2.58 C 4.605 1.804 5.825 1.385 7.08 1.385 Z M 2.669 3.531 L 4.236 5.098 C 3.034 6.406 2.212 7.753 1.829 8.945 C 1.151 7.119 1.471 5.069 2.669 3.534 L 2.669 3.531 Z M 14.214 14.182 C 12.586 15.809 10.441 16.812 8.147 17.025 C 8.282 17.49 8.622 17.866 9.069 18.05 L 9.657 18.05 C 10.196 18.05 10.632 18.486 10.632 19.025 C 10.632 19.564 10.196 19.996 9.657 20 L 4.772 20 C 4.233 20 3.796 19.564 3.796 19.025 C 3.796 18.486 4.233 18.053 4.772 18.05 L 5.36 18.05 C 5.81 17.869 6.151 17.49 6.282 17.025 C 3.988 16.812 1.843 15.809 0.215 14.182 C -0.072 13.894 -0.072 13.433 0.215 13.146 C 0.503 12.859 0.967 12.859 1.251 13.146 C 4.545 16.43 9.881 16.43 13.171 13.143 C 16.461 9.86 16.461 4.538 13.171 1.251 C 12.884 0.964 12.884 0.503 13.171 0.215 C 13.458 -0.072 13.923 -0.072 14.206 0.215 C 18.061 4.073 18.057 10.317 14.206 14.178 L 14.214 14.182 Z" fill="currentColor" fill-rule="nonzero"/>
</svg>
