<svg xmlns="http://www.w3.org/2000/svg" width="20" height="18.785" viewBox="0 0 20 18.785" fill="none">
  <path d="M 20 7.917 C 20 10.066 18.26 11.806 16.111 11.806 C 13.962 11.806 12.221 10.066 12.221 7.917 L 20 7.917 Z M 2.782 6.675 L 3.893 4.228 L 5.003 6.675 L 6.519 6.675 L 4.827 2.945 C 5.301 2.893 5.751 2.789 6.211 2.682 C 7.125 2.471 8.08 2.253 9.304 2.557 L 9.304 14.536 L 7.436 14.536 C 7.052 14.536 6.744 14.844 6.744 15.228 C 6.744 15.612 7.052 15.92 7.436 15.92 L 12.557 15.92 C 12.941 15.92 13.249 15.612 13.249 15.228 C 13.249 14.844 12.941 14.536 12.557 14.536 L 10.689 14.536 L 10.689 2.561 C 11.913 2.256 12.869 2.474 13.785 2.685 C 14.246 2.789 14.699 2.896 15.17 2.948 L 13.478 6.678 L 14.993 6.678 L 16.104 4.232 L 17.215 6.678 L 18.73 6.678 L 16.983 2.83 C 17.121 2.796 17.263 2.754 17.408 2.702 C 17.772 2.581 17.962 2.187 17.841 1.827 C 17.72 1.464 17.325 1.273 16.965 1.394 C 15.903 1.758 15.014 1.554 14.09 1.343 C 13.087 1.111 12.045 0.872 10.685 1.149 L 10.685 0.692 C 10.685 0.308 10.377 0 9.993 0 C 9.609 0 9.301 0.308 9.301 0.692 L 9.301 1.149 C 7.945 0.875 6.9 1.114 5.896 1.343 C 4.969 1.557 4.083 1.758 3.021 1.394 C 2.657 1.273 2.266 1.464 2.145 1.827 C 2.024 2.19 2.215 2.581 2.578 2.702 C 2.723 2.751 2.865 2.796 3.003 2.83 L 1.256 6.678 L 2.768 6.678 L 2.782 6.675 Z M 14.325 17.401 L 5.675 17.401 C 5.291 17.401 4.983 17.709 4.983 18.093 C 4.983 18.478 5.291 18.785 5.675 18.785 L 14.325 18.785 C 14.709 18.785 15.017 18.478 15.017 18.093 C 15.017 17.709 14.706 17.401 14.325 17.401 Z M 7.782 7.917 L 0 7.917 C 0 10.066 1.74 11.806 3.889 11.806 C 6.038 11.806 7.782 10.066 7.782 7.917 Z" fill="currentColor" fill-rule="evenodd"/>
</svg>
