<svg xmlns="http://www.w3.org/2000/svg" width="13.340" height="16.411" viewBox="0 0 13.340 16.411" fill="none">
  <path d="M 2.05 0 C 0.924 0 0 0.924 0 2.05 L 0 14.36 C 0 15.487 0.924 16.411 2.05 16.411 L 12.823 16.411 C 12.961 16.411 13.092 16.359 13.188 16.262 C 13.285 16.166 13.34 16.035 13.34 15.897 C 13.34 15.759 13.288 15.628 13.188 15.532 C 13.092 15.435 12.961 15.38 12.823 15.38 L 12.31 15.38 L 12.31 13.326 L 12.823 13.326 C 13.106 13.326 13.333 13.099 13.337 12.82 L 13.337 0.517 C 13.337 0.379 13.285 0.248 13.185 0.152 C 13.088 0.055 12.958 0 12.82 0 L 2.047 0 L 2.05 0 Z M 2.05 13.33 L 11.286 13.33 L 11.286 15.384 L 2.05 15.384 C 1.478 15.384 1.03 14.936 1.03 14.36 C 1.03 13.785 1.485 13.33 2.05 13.33 Z" fill="currentColor" fill-rule="nonzero"/>
</svg>
