<svg xmlns="http://www.w3.org/2000/svg" width="18" height="18" viewBox="0 0 18 18" fill="none">
  <path d="M 16.072 0 L 1.928 0 C 0.864 0 0 0.864 0 1.928 L 0 16.072 C 0 17.136 0.864 18 1.928 18 L 16.072 18 C 17.136 18 18 17.136 18 16.072 L 18 1.928 C 18 0.864 17.136 0 16.072 0 Z M 6.961 13.765 C 7.085 13.885 7.154 14.049 7.154 14.221 C 7.154 14.392 7.088 14.56 6.965 14.68 C 6.841 14.8 6.677 14.869 6.505 14.869 C 6.334 14.869 6.17 14.8 6.05 14.676 L 5.142 13.765 L 4.235 14.673 C 3.983 14.917 3.579 14.917 3.331 14.665 C 3.083 14.417 3.08 14.013 3.324 13.761 L 4.235 12.854 L 3.327 11.947 C 3.083 11.695 3.083 11.291 3.335 11.043 C 3.582 10.795 3.987 10.791 4.239 11.035 L 5.146 11.947 L 6.053 11.039 C 6.305 10.795 6.709 10.795 6.957 11.046 C 7.205 11.294 7.209 11.699 6.965 11.95 L 6.053 12.858 L 6.961 13.765 Z M 7.07 5.784 L 5.784 5.784 L 5.784 7.07 C 5.784 7.424 5.496 7.712 5.142 7.712 C 4.789 7.712 4.501 7.424 4.501 7.07 L 4.501 5.784 L 3.214 5.784 C 2.861 5.784 2.573 5.496 2.573 5.142 C 2.573 4.789 2.861 4.501 3.214 4.501 L 4.501 4.501 L 4.501 3.214 C 4.501 2.861 4.789 2.573 5.142 2.573 C 5.496 2.573 5.784 2.861 5.784 3.214 L 5.784 4.501 L 7.07 4.501 C 7.424 4.501 7.712 4.789 7.712 5.142 C 7.712 5.496 7.424 5.784 7.07 5.784 Z M 14.786 14.786 L 10.93 14.786 C 10.576 14.786 10.288 14.498 10.288 14.144 C 10.288 13.791 10.576 13.503 10.93 13.503 L 14.786 13.503 C 15.139 13.503 15.427 13.791 15.427 14.144 C 15.427 14.498 15.139 14.786 14.786 14.786 Z M 14.786 12.213 L 10.93 12.213 C 10.576 12.213 10.288 11.925 10.288 11.571 C 10.288 11.218 10.576 10.93 10.93 10.93 L 14.786 10.93 C 15.139 10.93 15.427 11.218 15.427 11.571 C 15.427 11.925 15.139 12.213 14.786 12.213 Z M 14.786 5.784 L 10.93 5.784 C 10.576 5.784 10.288 5.496 10.288 5.142 C 10.288 4.789 10.576 4.501 10.93 4.501 L 14.786 4.501 C 15.139 4.501 15.427 4.789 15.427 5.142 C 15.427 5.496 15.139 5.784 14.786 5.784 Z" fill="currentColor" fill-rule="nonzero"/>
</svg>
