<svg xmlns="http://www.w3.org/2000/svg" width="18" height="18" viewBox="0 0 18 18" fill="none">
  <path d="M 3.755 1.664 C 5.082 0.714 6.673 0.116 8.398 0 L 8.398 8.398 L 5.981 8.398 C 5.876 5.705 5.067 3.346 3.896 1.838 C 3.849 1.78 3.802 1.722 3.755 1.664 Z M 9.602 0.004 C 11.327 0.12 12.918 0.718 14.245 1.667 C 14.198 1.725 14.151 1.783 14.104 1.841 C 12.929 3.346 12.124 5.709 12.019 8.402 L 9.602 8.402 L 9.602 0.004 Z M 14.245 16.336 C 12.918 17.286 11.327 17.884 9.602 18 L 9.602 9.602 L 12.019 9.602 C 12.124 12.295 12.933 14.654 14.104 16.162 C 14.151 16.22 14.198 16.278 14.245 16.336 Z M 8.398 18 C 6.673 17.884 5.082 17.286 3.755 16.336 C 3.802 16.278 3.849 16.22 3.896 16.162 C 5.071 14.658 5.876 12.295 5.981 9.602 L 8.398 9.602 L 8.398 18 Z M 15.173 2.429 C 16.786 3.947 17.844 6.05 18 8.398 L 13.223 8.398 C 13.324 6.013 14.009 3.915 15.053 2.577 C 15.093 2.526 15.133 2.476 15.176 2.429 L 15.173 2.429 Z M 17.996 9.602 C 17.841 11.95 16.786 14.056 15.169 15.571 C 15.129 15.524 15.089 15.474 15.046 15.423 C 14.006 14.085 13.317 11.987 13.215 9.602 L 17.993 9.602 L 17.996 9.602 Z M 2.827 15.575 C 1.214 14.056 0.156 11.954 0 9.605 L 4.777 9.605 C 4.676 11.99 3.991 14.089 2.947 15.426 C 2.907 15.477 2.867 15.528 2.824 15.575 L 2.827 15.575 Z M 0 8.398 C 0.156 6.05 1.211 3.944 2.827 2.429 C 2.867 2.476 2.907 2.526 2.95 2.577 C 3.991 3.915 4.679 6.013 4.781 8.398 L 0.004 8.398 L 0 8.398 Z" fill="currentColor" fill-rule="evenodd"/>
</svg>
