<svg xmlns="http://www.w3.org/2000/svg" width="18" height="18.036" viewBox="0 0 18 18.036" fill="none">
  <path d="M 11.719 11.248 L 12.451 11.98 C 12.769 11.773 13.147 11.655 13.554 11.655 C 14.111 11.655 14.619 11.88 14.983 12.248 C 15.347 12.612 15.575 13.119 15.575 13.676 C 15.575 14.233 15.351 14.74 14.983 15.104 C 14.619 15.468 14.111 15.697 13.554 15.697 C 12.997 15.697 12.49 15.472 12.126 15.104 C 11.762 14.74 11.533 14.233 11.533 13.676 C 11.533 13.272 11.651 12.894 11.855 12.58 L 11.123 11.848 C 10.519 12.323 9.759 12.605 8.934 12.605 C 8.109 12.605 7.349 12.323 6.745 11.848 L 6.17 12.423 C 6.638 13.012 6.92 13.762 6.92 14.576 C 6.92 15.533 6.534 16.397 5.906 17.022 C 5.281 17.646 4.413 18.036 3.46 18.036 C 2.507 18.036 1.639 17.65 1.014 17.022 C 0.389 16.397 0 15.529 0 14.576 C 0 13.622 0.386 12.755 1.014 12.13 C 1.639 11.505 2.507 11.116 3.46 11.116 C 4.253 11.116 4.985 11.383 5.57 11.833 L 6.149 11.255 C 5.674 10.651 5.392 9.891 5.392 9.066 C 5.392 8.241 5.674 7.481 6.149 6.877 L 4.792 5.52 C 4.374 5.817 3.864 5.992 3.314 5.992 C 2.61 5.992 1.971 5.706 1.51 5.245 C 1.05 4.785 0.764 4.146 0.764 3.442 C 0.764 2.739 1.05 2.1 1.51 1.639 C 1.971 1.178 2.61 0.893 3.314 0.893 C 4.017 0.893 4.656 1.178 5.117 1.639 C 5.577 2.1 5.863 2.739 5.863 3.442 C 5.863 3.992 5.688 4.503 5.392 4.92 L 6.749 6.277 C 7.352 5.802 8.113 5.52 8.938 5.52 C 9.762 5.52 10.523 5.802 11.126 6.277 L 12.523 4.881 C 12.137 4.371 11.908 3.735 11.908 3.046 C 11.908 2.203 12.251 1.443 12.801 0.893 C 13.351 0.343 14.115 0 14.954 0 C 15.793 0 16.557 0.343 17.107 0.893 C 17.657 1.443 18 2.207 18 3.046 C 18 3.885 17.657 4.649 17.107 5.199 C 16.557 5.749 15.793 6.092 14.954 6.092 C 14.265 6.092 13.629 5.863 13.119 5.477 L 11.723 6.874 C 12.198 7.477 12.48 8.238 12.48 9.062 C 12.48 9.887 12.198 10.648 11.723 11.251 L 11.719 11.248 Z" fill="currentColor" fill-rule="nonzero"/>
</svg>
