<svg xmlns="http://www.w3.org/2000/svg" width="8.505" height="8.831" viewBox="0 0 8.505 8.831" fill="none">
  <path d="M 8.259 6.352 C 8.259 7.334 8.505 7.557 8.505 7.929 C 8.505 8.459 7.995 8.831 7.419 8.831 C 6.382 8.831 6.037 8.187 6.005 7.463 C 5.068 8.476 3.982 8.831 2.714 8.831 C 1.35 8.831 0 7.915 0 6.435 C 0 4.489 1.514 3.942 3.355 3.733 L 4.819 3.573 C 5.396 3.507 5.855 3.381 5.855 2.706 C 5.855 2.03 5.146 1.741 4.341 1.741 C 2.564 1.741 2.514 3.026 1.56 3.026 C 0.951 3.026 0.541 2.608 0.541 2.124 C 0.541 1.191 1.891 0 4.359 0 C 6.663 0 8.259 0.724 8.259 2.413 L 8.259 6.355 L 8.259 6.352 Z M 5.859 4.663 C 5.595 4.903 5.104 4.983 4.822 5.032 L 3.95 5.161 C 2.945 5.307 2.404 5.61 2.404 6.32 C 2.404 6.85 2.913 7.285 3.736 7.285 C 5.05 7.285 5.859 6.449 5.859 5.579 L 5.859 4.663 Z" fill="currentColor" fill-rule="nonzero"/>
</svg>
