<svg xmlns="http://www.w3.org/2000/svg" width="18.755" height="20" viewBox="0 0 18.755 20" fill="none">
  <path d="M 18.607 11.273 L 16.517 8.095 C 16.401 7.911 16.354 7.7 16.332 7.468 C 15.962 3.293 12.459 0 8.19 0 C 3.667 0 0 3.663 0 8.19 C 0 10.881 1.298 13.503 3.293 15.219 C 3.525 15.429 3.689 15.705 3.689 16.031 L 3.689 19.209 C 3.689 19.579 3.968 19.88 4.338 19.927 L 11.367 19.996 C 11.784 20.043 12.132 19.695 12.132 19.278 L 12.132 17.606 L 14.987 17.606 C 15.741 17.606 16.354 16.993 16.354 16.238 L 16.354 12.945 C 16.354 12.807 16.47 12.666 16.633 12.666 L 17.841 12.666 C 18.559 12.687 19.002 11.878 18.607 11.273 Z" fill="currentColor" fill-rule="nonzero"/>
</svg>
