<svg xmlns="http://www.w3.org/2000/svg" width="18" height="8.943" viewBox="0 0 18 8.943" fill="none">
  <path d="M 17.244 7.436 L 16.142 7.436 L 16.142 0 L 1.861 0 L 1.861 7.436 L 0.76 7.436 C 0.342 7.436 0 7.772 0 8.189 C 0 8.607 0.339 8.943 0.76 8.943 L 17.24 8.943 C 17.658 8.943 18 8.607 18 8.189 C 18 7.776 17.661 7.436 17.244 7.436 Z M 6.814 4.42 C 6.814 3.225 7.791 2.256 9.007 2.256 C 9.606 2.256 10.152 2.496 10.555 2.889 C 10.947 3.278 11.193 3.822 11.193 4.424 L 11.193 7.44 L 6.818 7.44 L 6.818 4.424 L 6.814 4.42 Z" fill="currentColor" fill-rule="nonzero"/>
</svg>
