<svg xmlns="http://www.w3.org/2000/svg" width="16.684" height="7.551" viewBox="0 0 16.684 7.551" fill="none">
  <path d="M 1.137 7.551 L 15.547 7.551 C 16.171 7.551 16.684 7.042 16.684 6.423 L 16.684 3.962 C 16.684 3.329 16.281 2.767 15.682 2.548 L 8.864 0.09 C 8.526 -0.03 8.155 -0.03 7.82 0.09 L 0.995 2.548 C 0.396 2.767 0 3.329 0 3.962 L 0 6.423 C 0 7.038 0.51 7.551 1.137 7.551 Z M 8.34 2.551 C 8.961 2.551 9.478 3.057 9.478 3.679 C 9.478 4.302 8.961 4.807 8.34 4.807 C 7.72 4.807 7.203 4.302 7.203 3.679 C 7.203 3.053 7.709 2.551 8.34 2.551 Z" fill="currentColor" fill-rule="nonzero"/>
</svg>
